<svg width="87" height="78" viewBox="0 0 87 78" fill="none" xmlns="http://www.w3.org/2000/svg">
<path d="M81.7999 48.9001C78.6999 46.3001 74.9999 45 70.7999 45C69.9999 45 69.0999 45.1 68.2999 45.3C67.4999 45.5 66.3999 45.7001 65.2999 46.1001C64.9999 41.2001 65.6 36.2001 67.1 30.9001C68.6 25.6001 70.5 20.8001 72.6 16.4001C74.8 12.0001 76.8 8.70005 78.6 6.30005L69.7999 0C65.0999 5.5 61.1 11.4001 58 17.6001C54.8 23.8001 52.4 29.9 50.7 36C49 42 48.2 47.6001 48.2 52.6001C48.2 59.7001 50 65.7001 53.6 70.6001C57.2 75.6001 62.5 78 69.6 77.8C74.6 77.8 78.6999 76.1001 81.7999 72.8C84.8999 69.4 86.5 65.3 86.5 60.5C86.4 55.3 84.8999 51.5001 81.7999 48.9001ZM33.3999 48.9001C30.2999 46.3001 26.5999 45 22.3999 45C21.5999 45 20.6999 45.1 19.8999 45.3C19.0999 45.5 18.0999 45.7001 16.8999 46.1001C16.5999 41.2001 17.2 36.2001 18.7 30.9001C20.2 25.6001 22.0999 20.8001 24.2999 16.4001C26.4999 12.0001 28.4999 8.70005 30.3999 6.30005L21.6 0C16.9 5.5 12.8999 11.4001 9.79993 17.6001C6.59993 23.8001 4.2 29.9 2.5 36C0.8 42 0 47.6001 0 52.6001C0 59.7001 1.7999 65.7001 5.3999 70.6001C8.9999 75.6001 14.3999 78 21.3999 77.8C26.3999 77.8 30.5 76.1001 33.6 72.8C36.7 69.4 38.2999 65.3 38.2999 60.5C37.9999 55.3 36.4999 51.5001 33.3999 48.9001Z" fill="#2A2927"/>
</svg>
